<svg xmlns="http://www.w3.org/2000/svg" viewBox="0 0 64 64"><rect width="64" height="64" rx="12" fill="#1b3556"/><path d="M36.51 6.39A26 26 0 0 1 34.27 57.9" fill="none" stroke="#5b7fae" stroke-width="5.2" stroke-linecap="butt"/><path d="M29.73 57.9A26 26 0 0 1 27.49 6.39" fill="none" stroke="#6aaed6" stroke-width="5.2" stroke-linecap="butt"/><rect x="28.10" y="4.57" width="7.80" height="2.86" rx="0.95" fill="#6aaed6" transform="rotate(0 32 6)"/><rect x="28.10" y="56.57" width="7.80" height="2.86" rx="0.95" fill="#6aaed6" transform="rotate(180 32 58)"/><path d="M32 8.6 V27.32 Q32 32.52 26.80 32.52 H23.16 V36.16" fill="none" stroke="#6aaed6" stroke-width="3.90" stroke-linejoin="round"/><path d="M27.84 24.20 H36.16 M32 24.20 V27.32" fill="none" stroke="#6aaed6" stroke-width="2.73" stroke-linecap="round"/><path d="M23.16 35.12 C23.94 37.72 26.80 40.58 26.80 42.66 A3.64 3.64 0 0 1 19.52 42.66 C19.52 40.58 22.38 37.72 23.16 35.12Z" fill="#6aaed6"/></svg>
